# xmcd CD database file
#
# Track frame offsets:
#	150
#	18465
#	33365
#	47397
#	63897
#	89016
#	100061
#	116387
#	136862
#	154520
#	175896
#	188847
#	208097
#
# Disc length: 3034 seconds
#
# Revision: 0
# Processed by: cddbd v1.5.1PL0 Copyright (c) Steve Scherf et al.
# Submitted via: CDex 1.51
#
DISCID=a10bd80d
DTITLE=Atomic Harvesters - Weolcome to Lounge Country
DYEAR=2003
DGENRE=Country
TTITLE0=Ford Machine
TTITLE1=You Remember The Civil War
TTITLE2=Ain't No Ridin Trains
TTITLE3=Truck Drivin Sonofabitch
TTITLE4=Ballad Of An Old Machine
TTITLE5=Cattle Condo
TTITLE6=Bernard's Death Song
TTITLE7=Spork
TTITLE8=Jim's Swedish Love Song
TTITLE9=Montgomery Ward's
TTITLE10=You Give Love A Bad Name
TTITLE11=Dirty Deal
TTITLE12=Count On Your Partner
EXTD=YEAR: 2003
EXTT0=
EXTT1=
EXTT2=
EXTT3=
EXTT4=
EXTT5=
EXTT6=
EXTT7=
EXTT8=
EXTT9=
EXTT10=
EXTT11=
EXTT12=
PLAYORDER=
